<svg width="20" height="20" viewBox="0 0 20 20" version="1.1" xmlns="http://www.w3.org/2000/svg" xmlns:xlink="http://www.w3.org/1999/xlink" xmlns:figma="http://www.figma.com/figma/ns">
<title>Icon - Instagram</title>
<desc>Created using Figma</desc>
<g id="Canvas" transform="translate(4805 -1002)" figma:type="canvas">
<g id="Icon - Instagram" figma:type="vector-operation">
<use xlink:href="#path0_fill" transform="translate(-4805 1002)" fill="#FFFFFF"/>
</g>
</g>
<defs>
<path id="path0_fill" fill-rule="evenodd" d="M 3.86475 0L 16.1338 0C 18.2656 0 19.9995 1.73309 19.9995 3.86487L 19.9995 7.94714L 19.9995 16.1344C 19.9995 18.2669 18.2656 20 16.1343 20L 3.86475 20C 1.73291 20 0 18.2669 0 16.1344L 0 7.94714L 0 3.86487C 0 1.73309 1.73291 0 3.86475 0ZM 17.2441 2.30463L 17.6851 2.30322L 17.6851 2.74231L 17.6851 5.69287L 14.3062 5.70416L 14.2949 2.31384L 17.2441 2.30463ZM 10.001 6.479C 8.82617 6.479 7.78711 7.05975 7.14551 7.94647C 6.72998 8.52441 6.48096 9.23193 6.48047 9.99823C 6.47852 11.9395 8.05859 13.5189 9.99902 13.5189C 11.939 13.5189 13.5195 11.9402 13.5195 9.99896C 13.5195 9.23267 13.2695 8.52509 12.8545 7.9472C 12.2153 7.05975 11.1753 6.479 10.001 6.479ZM 16.1333 18.0495C 17.189 18.0495 18.0498 17.1925 18.0498 16.1344L 18.0498 7.94714L 15.063 7.94714C 15.3223 8.58032 15.4688 9.27295 15.4688 9.9989C 15.4688 13.0139 13.0161 15.4686 9.99951 15.4686C 6.9834 15.4686 4.53076 13.0139 4.53076 9.9989C 4.53076 9.27295 4.67529 8.58032 4.93213 7.94714L 1.94775 7.94714L 1.94775 16.1344C 1.94775 17.1925 2.80664 18.0495 3.86426 18.0495L 16.1333 18.0495Z"/>
</defs>
</svg>
